<svg id='svgElem' viewBox="0 0 120.939 123.998" xmlns="http://www.w3.org/2000/svg" xmlns:xlink="http://www.w3.org/1999/xlink">

	<path id="Контур 546" d="M119.01 86.19C116.98 80.99 114.19 76.13 110.73 71.76C109.32 70.05 108.11 68.19 106.71 66.49C101.99 60.67 96.9 55.15 91.47 49.98C90.53 48.94 89.47 48 88.33 47.18C91.36 43.2 93.27 38.48 93.86 33.51C96.33 33.88 98.85 33.26 100.87 31.79C102.2 30.77 103.3 29.49 104.08 28.01C104.86 26.54 105.32 24.92 105.42 23.25C105.65 19.13 104.36 15.08 101.78 11.85C100.78 10.49 99.47 9.39 97.97 8.63C96.46 7.87 94.79 7.48 93.1 7.48C91.84 7.54 90.61 7.86 89.49 8.41C88.36 8.97 87.37 9.76 86.56 10.72C84.76 8.74 82.72 6.97 80.5 5.46C74.75 1.63 67.94 -0.27 61.03 0.03C55.51 0.08 50.11 1.65 45.43 4.56C43.77 2.86 41.58 1.78 39.22 1.48C36.86 1.19 34.47 1.7 32.44 2.94C30.48 4.21 28.85 5.91 27.66 7.91C26.47 9.92 25.77 12.17 25.6 14.49C25.42 16.03 25.56 17.6 26 19.09C26.45 20.58 27.19 21.97 28.19 23.17C29.54 24.62 31.27 25.66 33.18 26.18C32.43 30.48 32.78 34.91 34.19 39.05C35.12 41.63 36.38 44.08 37.94 46.35C27.85 50.91 18.52 57.81 12.64 67.31C10.71 70.37 9.79 73.96 10.01 77.57C10.24 79.78 12.18 81.22 13.88 82.4C10 83.86 6.12 85.75 3.33 88.9C1.27 91.19 0.08 94.14 0 97.21C-0.02 99.5 0.42 101.77 1.29 103.89C2.16 106.01 3.45 107.94 5.07 109.55C6.44 111.03 8.11 112.17 9.56 113.55C13.81 117.29 18.84 120.02 24.28 121.56C29.25 122.95 34.54 122.62 39.29 120.62C41.59 119.66 43.66 118.22 45.37 116.42C47.09 114.62 48.41 112.48 49.25 110.14C49.92 110.76 50.76 111.16 51.65 111.29C52.55 111.43 53.47 111.28 54.29 110.87C55.01 115.31 58.38 118.86 62.3 120.84C66.65 123 71.6 123.5 76.39 123.73C81.13 123.96 85.94 124.32 90.62 123.36C94.69 122.69 98.37 120.51 100.91 117.27C102.55 114.96 103.25 112.1 102.86 109.29C103.83 110.04 104.93 110.61 106.11 110.97C107.56 111.31 109.06 111.33 110.51 111.04C111.97 110.75 113.34 110.15 114.55 109.28C117.79 106.99 119.98 103.51 120.65 99.6C121.34 95.07 120.77 90.43 119.01 86.19ZM93.38 10.36C94.48 10.39 95.56 10.65 96.55 11.13C97.54 11.61 98.41 12.3 99.1 13.15C101.23 15.57 102.45 18.65 102.56 21.86C102.64 23.06 102.47 24.25 102.08 25.39C101.69 26.52 101.07 27.56 100.27 28.45C99.48 29.29 98.5 29.92 97.41 30.29C96.32 30.67 95.16 30.77 94.02 30.59C94.03 28.86 93.91 27.14 93.67 25.42C94.85 24.69 95.78 23.61 96.32 22.33C96.71 21.4 96.75 20.35 96.45 19.39C96.14 18.42 95.5 17.59 94.64 17.05C94.06 16.78 93.42 16.64 92.78 16.65C92.14 16.65 91.5 16.81 90.93 17.1C90.2 15.72 89.39 14.39 88.51 13.1C88.99 12.24 89.7 11.54 90.56 11.05C91.42 10.57 92.4 10.33 93.38 10.36ZM33.76 23.24C32.68 23 31.68 22.5 30.86 21.77C30.03 21.04 29.4 20.12 29.03 19.08C28.17 16.52 28.25 13.72 29.28 11.22C30.19 8.57 32.08 6.36 34.57 5.05C35.97 4.36 37.55 4.12 39.1 4.35C40.64 4.59 42.08 5.3 43.2 6.38C41.96 7.7 40.79 9.08 39.7 10.52C38.84 10.17 37.9 10.04 36.97 10.17C36.05 10.29 35.18 10.65 34.44 11.22C33.69 11.91 33.2 12.83 33.04 13.83C32.88 14.84 33.06 15.87 33.56 16.76C33.99 17.51 34.57 18.16 35.26 18.69C34.66 20.17 34.16 21.69 33.76 23.24ZM35.73 31.95C35.55 26.83 36.71 21.75 39.11 17.22C40.75 13.7 43.06 10.53 45.91 7.88C48.09 6.09 50.64 4.79 53.38 4.09C59.1 2.46 65.18 2.46 70.91 4.09C77.14 5.87 82.57 9.72 86.3 14.99C89.59 19.63 91.31 25.19 91.21 30.87C91.1 36.81 88.81 42.51 84.77 46.88C82.72 49.08 80.35 50.98 77.75 52.52C78.51 51.14 78.98 49.63 79.12 48.06C79.26 46.5 79.07 44.93 78.57 43.44C77.15 39.58 74.33 36.38 70.66 34.5C71.19 33.88 71.56 33.16 71.75 32.37C71.94 31.59 71.94 30.77 71.76 29.98C71.54 29.3 71.17 28.67 70.67 28.16C70.18 27.64 69.56 27.25 68.89 27.01C68.21 26.77 67.49 26.69 66.78 26.78C66.06 26.86 65.38 27.11 64.78 27.51C64.17 27.99 63.67 28.6 63.32 29.29C62.96 29.99 62.77 30.75 62.74 31.53C60.46 30.92 58.12 30.58 55.76 30.53C55.89 29.77 55.84 28.98 55.61 28.24C55.38 27.49 54.98 26.81 54.45 26.25C53.97 25.8 53.4 25.47 52.78 25.28C52.16 25.08 51.51 25.02 50.86 25.11C50.22 25.2 49.6 25.43 49.06 25.79C48.51 26.14 48.06 26.61 47.72 27.17C47.31 27.95 47.13 28.83 47.18 29.71C47.24 30.58 47.54 31.43 48.05 32.15C45.52 33.31 43.43 35.25 42.09 37.69C41.12 40.11 40.67 42.7 40.78 45.31C37.78 41.47 36.02 36.81 35.73 31.95ZM52.91 30.66C52.2 30.81 51.49 30.96 50.78 31.09C50.46 30.43 49.89 29.78 50.07 29C50.13 28.74 50.27 28.51 50.45 28.33C50.64 28.15 50.87 28.02 51.13 27.96C51.38 27.9 51.65 27.9 51.9 27.98C52.15 28.06 52.38 28.2 52.55 28.4C53.08 29.03 52.83 29.92 52.92 30.66L52.91 30.66ZM50.59 34.19C53.58 33.27 56.76 33.13 59.82 33.79C63.21 34.37 66.48 35.52 69.48 37.19C72.06 38.54 74.15 40.68 75.41 43.29C75.98 44.4 76.28 45.63 76.3 46.87C76.31 48.12 76.04 49.35 75.5 50.47C74.13 52.96 71.95 54.91 69.32 56C67.37 56.49 65.37 56.76 63.36 56.81C66.84 54.67 69.53 51.46 71.02 47.66C71.25 46.91 71.63 45.95 70.96 45.31C70.78 45.12 70.55 44.98 70.3 44.91C70.05 44.84 69.78 44.84 69.53 44.91C69.27 44.98 69.05 45.12 68.87 45.31C68.69 45.51 68.57 45.74 68.52 46C67.54 49.13 65.52 51.84 62.79 53.68C61.2 54.9 59.32 55.68 57.33 55.96C56.53 53.62 56.26 51.14 56.54 48.68C57.87 48.6 59.17 48.27 60.37 47.71C61.21 47.27 61.94 46.66 62.52 45.92C63.11 45.18 63.53 44.33 63.76 43.42C63.94 42.59 63.91 41.73 63.68 40.92C63.45 40.11 63.03 39.36 62.45 38.75C60.75 37.09 58.47 36.17 56.09 36.18C54.96 36.07 53.82 36.22 52.75 36.59C51.68 36.96 50.7 37.56 49.88 38.34C49.11 39.17 48.6 40.21 48.43 41.33C48.25 42.44 48.41 43.58 48.89 44.61C49.41 45.49 50.1 46.25 50.92 46.86C51.75 47.47 52.68 47.91 53.67 48.16C53.45 50.61 53.61 53.07 54.14 55.47C50.71 54.42 47.58 52.59 44.97 50.14C44.3 49.11 43.91 47.94 43.82 46.72C43.49 44.28 43.71 41.8 44.45 39.45C45.06 38.2 45.92 37.09 46.98 36.19C48.03 35.29 49.26 34.61 50.59 34.19L50.59 34.19ZM66.71 29.7C66.97 29.59 67.27 29.55 67.55 29.59C67.84 29.62 68.11 29.73 68.35 29.9C68.58 30.08 68.76 30.3 68.88 30.57C69 30.83 69.05 31.12 69.03 31.4C69 32.17 68.34 32.64 67.82 33.11C67.12 32.79 65.89 32.82 65.77 31.87C65.64 31.45 65.67 31.01 65.84 30.61C66.01 30.21 66.32 29.89 66.71 29.7L66.71 29.7ZM53.79 45.2C53.1 45.01 52.48 44.61 52.02 44.05C51.57 43.49 51.3 42.81 51.25 42.09C51.33 41.38 51.64 40.7 52.14 40.18C52.64 39.66 53.3 39.33 54.01 39.22C55.75 38.84 57.57 39.05 59.17 39.83C59.69 40.03 60.13 40.37 60.46 40.82C60.78 41.26 60.97 41.79 61 42.34C60.9 43.02 60.62 43.66 60.19 44.19C59.76 44.73 59.2 45.14 58.56 45.39C57 45.89 55.31 45.82 53.8 45.19L53.79 45.2ZM44.38 53.5C49.89 57.8 56.77 59.99 63.76 59.67C65.78 59.72 67.8 59.48 69.74 58.95C73.3 58.06 76.69 56.62 79.78 54.68C84.86 67.19 89.87 79.73 94.83 92.29C91.71 89.71 87.99 87.95 84.01 87.19C81.78 86.77 79.51 86.58 77.24 86.6C77.13 81.16 76.78 75.45 74.06 70.59C72.02 66.74 68.55 63.82 64.39 62.45C58.96 60.91 53.14 61.56 48.18 64.24C43.37 66.87 39.67 71.13 37.75 76.24C36.63 79.15 35.93 82.2 35.68 85.31C32.78 83.44 29.59 82.09 26.23 81.32C27.43 80.17 28.54 78.93 29.56 77.62C35.39 70.15 40.36 62.06 44.39 53.49L44.38 53.5ZM13.28 78.16C13.05 77.91 12.91 77.59 12.88 77.25C12.81 75.56 13.02 73.86 13.5 72.23C14.23 70.13 15.3 68.17 16.68 66.43C22.43 58.46 30.75 52.65 39.68 48.72C40.5 49.63 41.3 50.55 42.15 51.42C37.83 60.91 32.28 69.79 25.63 77.82C24.87 78.75 23.92 79.51 22.83 80.04C21.75 80.56 20.56 80.84 19.36 80.87C18.21 80.9 17.06 80.67 16.01 80.2C14.96 79.73 14.03 79.03 13.29 78.16L13.28 78.16ZM44.82 108.39C44.24 110.14 43.26 111.73 41.97 113.05C40.67 114.36 39.09 115.37 37.35 115.99C33.06 117.71 28.26 117.33 23.88 116.2C19.99 115.19 16.23 113.72 12.69 111.81C8.96 109.93 5.95 106.9 4.09 103.17C3.27 101.54 2.85 99.75 2.85 97.93C2.86 96.12 3.3 94.33 4.13 92.71C6.13 89.3 9.7 87.21 13.26 85.72C14.84 85.07 16.46 84.51 18.1 84.03C22.48 83.27 27 83.94 30.97 85.95C36.03 88.39 40.23 92.32 42.99 97.21C44.84 100.56 45.91 104.61 44.83 108.39L44.82 108.39ZM54 102.8C53.96 103.34 53.86 103.88 53.69 104.4C52.8 104.84 51.81 105.03 50.82 104.95C49.83 104.87 48.88 104.52 48.07 103.95C47.51 97.29 43.4 91.48 38.35 87.33C38.6 85.67 38.67 83.98 39 82.33C39.73 77.88 41.73 73.73 44.78 70.39C46.78 68.3 49.24 66.68 51.96 65.67C54.68 64.66 57.6 64.28 60.49 64.55C63.64 64.84 66.59 66.21 68.84 68.42C71.67 71.4 73.43 75.24 73.85 79.32C74.18 81.8 74.34 84.31 74.33 86.81C69.33 87.27 64.55 89.1 60.53 92.1C57.06 94.71 54.73 98.53 54.01 102.8L54 102.8ZM97.38 111.32C96.62 112.91 95.54 114.34 94.21 115.51C92.88 116.67 91.34 117.57 89.66 118.13C85 119.9 79.87 119.61 75.02 118.86C71.87 118.41 68.75 117.76 65.68 116.92C63.12 116.24 60.81 114.82 59.06 112.84C57.97 111.41 57.22 109.75 56.84 108C56.47 106.24 56.49 104.42 56.89 102.67C57.68 99.37 59.58 96.45 62.27 94.39C65.54 91.9 69.4 90.31 73.47 89.76C78.71 88.91 84.08 89.64 88.9 91.85C92.14 93.36 94.84 95.83 96.63 98.91C97.7 100.79 98.33 102.88 98.46 105.03C98.59 107.18 98.22 109.33 97.39 111.32L97.38 111.32ZM112.83 103.77C111.9 104.63 110.78 105.26 109.56 105.61C108.34 105.96 107.06 106.02 105.82 105.79C105.1 105.74 104.41 105.49 103.82 105.09C103.23 104.68 102.76 104.12 102.46 103.48C95.67 86.67 89.03 69.81 82.26 52.99C83.8 51.78 85.25 50.46 86.67 49.11C87.79 50.41 88.99 51.65 90.25 52.82C98.28 60.76 106.19 69.06 111.64 79.02C113.93 83.34 116.05 87.92 116.45 92.85C116.68 94.83 116.47 96.83 115.85 98.71C115.22 100.6 114.2 102.33 112.84 103.78L112.83 103.77Z" fill="#AA4E41" fill-opacity="1.000000" fill-rule="nonzero"/>
	<path id="Контур 547" d="M61.01 42.34C60.91 43.02 60.63 43.66 60.2 44.19C59.77 44.73 59.21 45.14 58.57 45.39C57.01 45.89 55.32 45.82 53.8 45.2C53.1 45.01 52.49 44.6 52.03 44.05C51.57 43.49 51.3 42.81 51.26 42.09C51.33 41.37 51.64 40.7 52.14 40.18C52.64 39.66 53.3 39.32 54.02 39.22C55.76 38.84 57.58 39.05 59.18 39.83C59.69 40.03 60.14 40.37 60.47 40.82C60.79 41.26 60.98 41.79 61.01 42.34Z" fill="#FFFFFF" fill-opacity="1.000000" fill-rule="nonzero"/>
	<path id="Контур 548" d="M112.84 103.78C111.91 104.63 110.79 105.26 109.57 105.61C108.35 105.96 107.07 106.02 105.83 105.79C105.11 105.74 104.42 105.5 103.83 105.09C103.24 104.68 102.77 104.13 102.47 103.48C95.67 86.67 89.04 69.81 82.27 53C83.81 51.78 85.26 50.46 86.68 49.11C87.8 50.41 88.99 51.65 90.26 52.82C98.29 60.76 106.2 69.06 111.65 79.03C113.94 83.34 116.06 87.93 116.46 92.86C116.68 94.83 116.48 96.83 115.85 98.71C115.23 100.6 114.2 102.33 112.84 103.78Z" fill="#FFFFFF" fill-opacity="1.000000" fill-rule="nonzero"/>
	<path id="Контур 549" d="M44.83 108.39C44.25 110.14 43.27 111.73 41.97 113.05C40.68 114.36 39.1 115.37 37.35 115.99C33.07 117.71 28.27 117.33 23.89 116.19C19.99 115.19 16.24 113.72 12.7 111.81C8.97 109.93 5.95 106.9 4.1 103.17C3.28 101.54 2.85 99.75 2.86 97.93C2.87 96.12 3.3 94.33 4.13 92.71C6.13 89.3 9.7 87.2 13.26 85.71C14.85 85.07 16.46 84.5 18.11 84.03C22.49 83.27 27.01 83.94 30.98 85.95C36.04 88.39 40.23 92.32 42.99 97.21C44.84 100.56 45.91 104.61 44.83 108.39Z" fill="#FFFFFF" fill-opacity="1.000000" fill-rule="nonzero"/>
	<path id="Контур 550" d="M97.39 111.32C96.62 112.91 95.55 114.34 94.22 115.5C92.89 116.67 91.34 117.56 89.67 118.13C85 119.9 79.87 119.61 75.03 118.86C71.88 118.41 68.76 117.76 65.69 116.92C63.13 116.24 60.82 114.82 59.07 112.84C57.98 111.41 57.23 109.75 56.85 107.99C56.48 106.24 56.5 104.42 56.9 102.67C57.69 99.37 59.59 96.45 62.28 94.38C65.55 91.9 69.41 90.31 73.48 89.76C78.72 88.91 84.09 89.63 88.91 91.85C92.15 93.36 94.85 95.83 96.64 98.91C97.71 100.78 98.33 102.88 98.47 105.03C98.6 107.18 98.23 109.34 97.39 111.32Z" fill="#FFFFFF" fill-opacity="1.000000" fill-rule="nonzero"/>
	<path id="Контур 551" d="M74.34 86.81C69.34 87.27 64.56 89.1 60.54 92.1C57.07 94.7 54.73 98.53 54.01 102.8C53.97 103.34 53.87 103.88 53.7 104.4C52.81 104.84 51.81 105.03 50.82 104.95C49.83 104.87 48.88 104.52 48.08 103.95C47.52 97.29 43.4 91.48 38.36 87.33C38.61 85.67 38.68 83.98 39.01 82.33C39.74 77.88 41.74 73.73 44.79 70.39C46.79 68.3 49.25 66.68 51.97 65.67C54.69 64.66 57.6 64.28 60.5 64.55C63.65 64.84 66.6 66.21 68.85 68.42C71.68 71.4 73.44 75.24 73.86 79.32C74.19 81.8 74.35 84.31 74.34 86.81Z" fill="#FFFFFF" fill-opacity="1.000000" fill-rule="nonzero"/>
	<path id="Контур 552" d="M94.83 92.29C91.72 89.71 88 87.95 84.02 87.18C81.79 86.77 79.52 86.57 77.25 86.6C77.13 81.15 76.79 75.45 74.07 70.59C72.02 66.73 68.56 63.81 64.4 62.44C58.97 60.91 53.14 61.55 48.18 64.24C43.38 66.87 39.68 71.13 37.76 76.24C36.64 79.15 35.94 82.2 35.68 85.31C32.79 83.44 29.59 82.09 26.23 81.31C27.43 80.16 28.55 78.93 29.56 77.61C35.39 70.15 40.36 62.06 44.39 53.49C49.9 57.79 56.78 59.99 63.77 59.66C65.79 59.71 67.8 59.47 69.75 58.94C73.3 58.06 76.69 56.62 79.79 54.67C84.86 67.19 89.88 79.73 94.83 92.29Z" fill="#FFFFFF" fill-opacity="1.000000" fill-rule="nonzero"/>
	<path id="Контур 553" d="M42.15 51.42C37.84 60.91 32.29 69.79 25.64 77.82C24.88 78.75 23.93 79.51 22.84 80.03C21.76 80.56 20.57 80.84 19.37 80.86C18.22 80.9 17.07 80.67 16.02 80.21C14.97 79.74 14.03 79.04 13.29 78.16C13.06 77.91 12.91 77.59 12.88 77.25C12.82 75.56 13.03 73.86 13.51 72.24C14.23 70.14 15.31 68.17 16.69 66.43C22.43 58.46 30.76 52.66 39.69 48.72C40.51 49.63 41.31 50.55 42.15 51.42Z" fill="#FFFFFF" fill-opacity="1.000000" fill-rule="nonzero"/>
	<path id="Контур 554" d="M52.91 30.66C52.2 30.81 51.49 30.96 50.78 31.09C50.46 30.43 49.89 29.78 50.06 29C50.13 28.74 50.27 28.51 50.45 28.33C50.64 28.15 50.87 28.02 51.13 27.96C51.38 27.9 51.65 27.9 51.9 27.98C52.15 28.06 52.38 28.2 52.55 28.4C53.08 29.03 52.83 29.92 52.91 30.66Z" fill="#FFFFFF" fill-opacity="1.000000" fill-rule="nonzero"/>
	<path id="Контур 555" d="M69.03 31.4C69 32.17 68.34 32.64 67.83 33.1C67.12 32.79 65.89 32.82 65.77 31.86C65.64 31.44 65.67 31 65.84 30.6C66.01 30.21 66.32 29.88 66.71 29.69C66.98 29.58 67.27 29.55 67.56 29.58C67.84 29.62 68.12 29.73 68.35 29.9C68.58 30.07 68.77 30.3 68.89 30.56C69 30.82 69.05 31.11 69.03 31.4Z" fill="#FFFFFF" fill-opacity="1.000000" fill-rule="nonzero"/>
	<path id="Контур 556" d="M75.51 50.46C74.14 52.95 71.96 54.91 69.33 55.99C67.38 56.48 65.38 56.75 63.37 56.8C66.85 54.66 69.54 51.45 71.03 47.65C71.26 46.9 71.64 45.94 70.97 45.3C70.79 45.11 70.56 44.97 70.31 44.9C70.06 44.83 69.79 44.83 69.54 44.9C69.28 44.97 69.05 45.11 68.88 45.3C68.7 45.5 68.58 45.74 68.53 45.99C67.55 49.12 65.53 51.83 62.8 53.67C61.21 54.89 59.33 55.67 57.34 55.95C56.54 53.61 56.27 51.13 56.55 48.67C57.88 48.59 59.18 48.26 60.38 47.7C61.22 47.26 61.95 46.65 62.53 45.91C63.12 45.17 63.54 44.32 63.77 43.41C63.95 42.58 63.92 41.72 63.69 40.91C63.46 40.1 63.04 39.35 62.46 38.74C60.76 37.08 58.48 36.16 56.1 36.17C54.97 36.06 53.83 36.21 52.76 36.58C51.69 36.95 50.71 37.55 49.89 38.33C49.12 39.16 48.61 40.2 48.44 41.32C48.26 42.43 48.42 43.57 48.9 44.6C49.42 45.48 50.11 46.24 50.93 46.85C51.75 47.46 52.69 47.9 53.68 48.15C53.46 50.6 53.62 53.06 54.15 55.46C50.72 54.41 47.59 52.58 44.98 50.13C44.31 49.1 43.92 47.93 43.83 46.71C43.5 44.27 43.72 41.79 44.46 39.44C45.07 38.19 45.93 37.08 46.99 36.18C48.05 35.28 49.28 34.6 50.6 34.18C53.59 33.25 56.78 33.11 59.84 33.78C63.23 34.36 66.49 35.51 69.49 37.18C72.08 38.52 74.16 40.66 75.43 43.28C75.99 44.39 76.29 45.62 76.31 46.86C76.32 48.11 76.05 49.34 75.51 50.46Z" fill="#FFFFFF" fill-opacity="1.000000" fill-rule="nonzero"/>
	<path id="Контур 557" d="M100.27 28.45C99.48 29.29 98.5 29.92 97.41 30.29C96.32 30.67 95.16 30.77 94.02 30.59C94.03 28.86 93.91 27.14 93.67 25.42C94.85 24.69 95.78 23.61 96.32 22.33C96.71 21.39 96.75 20.35 96.45 19.39C96.14 18.42 95.5 17.59 94.64 17.05C94.06 16.77 93.42 16.64 92.78 16.64C92.14 16.65 91.5 16.81 90.93 17.1C90.2 15.72 89.39 14.39 88.51 13.1C88.99 12.24 89.7 11.53 90.56 11.05C91.42 10.57 92.4 10.33 93.38 10.36C94.48 10.38 95.56 10.65 96.55 11.13C97.54 11.61 98.41 12.3 99.1 13.15C101.23 15.57 102.45 18.65 102.56 21.86C102.64 23.06 102.47 24.25 102.08 25.38C101.69 26.52 101.07 27.56 100.27 28.45Z" fill="#FFFFFF" fill-opacity="1.000000" fill-rule="nonzero"/>
	<path id="Контур 558" d="M43.2 6.38C41.96 7.7 40.79 9.08 39.69 10.52C38.83 10.17 37.89 10.04 36.97 10.17C36.05 10.29 35.17 10.65 34.44 11.22C33.69 11.91 33.19 12.83 33.03 13.83C32.87 14.84 33.06 15.87 33.55 16.76C33.98 17.51 34.56 18.16 35.26 18.69C34.66 20.17 34.16 21.69 33.75 23.24C32.68 23.01 31.68 22.5 30.85 21.77C30.02 21.05 29.39 20.12 29.03 19.08C28.16 16.52 28.25 13.73 29.27 11.22C30.18 8.57 32.08 6.36 34.56 5.06C35.96 4.36 37.54 4.12 39.09 4.35C40.64 4.59 42.07 5.3 43.2 6.38Z" fill="#FFFFFF" fill-opacity="1.000000" fill-rule="nonzero"/>
	<path id="Контур 559" d="M91.21 30.87C91.11 36.8 88.81 42.5 84.78 46.87C82.72 49.07 80.35 50.97 77.75 52.51C78.51 51.13 78.98 49.62 79.12 48.06C79.26 46.49 79.07 44.92 78.57 43.43C77.15 39.57 74.33 36.37 70.66 34.49C71.19 33.88 71.56 33.15 71.75 32.36C71.94 31.58 71.95 30.76 71.76 29.97C71.54 29.29 71.17 28.67 70.67 28.15C70.18 27.64 69.57 27.24 68.89 27C68.21 26.76 67.49 26.68 66.78 26.77C66.07 26.86 65.38 27.11 64.78 27.5C64.17 27.98 63.67 28.59 63.32 29.28C62.96 29.98 62.77 30.74 62.74 31.52C60.47 30.91 58.12 30.58 55.76 30.52C55.89 29.76 55.84 28.97 55.61 28.23C55.38 27.48 54.98 26.8 54.45 26.24C53.97 25.79 53.4 25.46 52.78 25.27C52.16 25.07 51.51 25.02 50.86 25.1C50.22 25.19 49.6 25.42 49.06 25.78C48.51 26.13 48.06 26.61 47.72 27.16C47.31 27.94 47.13 28.82 47.18 29.7C47.24 30.58 47.54 31.42 48.05 32.14C45.52 33.3 43.43 35.24 42.09 37.68C41.12 40.1 40.67 42.7 40.78 45.3C37.78 41.46 36.02 36.81 35.73 31.95C35.55 26.83 36.71 21.75 39.11 17.22C40.75 13.7 43.06 10.52 45.91 7.88C48.09 6.08 50.64 4.79 53.38 4.09C59.11 2.45 65.18 2.45 70.91 4.09C77.14 5.87 82.57 9.72 86.3 14.99C89.59 19.62 91.31 25.19 91.21 30.87Z" fill="#FFFFFF" fill-opacity="1.000000" fill-rule="nonzero"/>
</svg>
