<svg id='icon' xmlns="http://www.w3.org/2000/svg" xml:space="preserve" version="1.1" style="shape-rendering:geometricPrecision; text-rendering:geometricPrecision; image-rendering:optimizeQuality; fill-rule:evenodd; clip-rule:evenodd"
viewBox="0 0 2030 1822.96"
 xmlns:xlink="http://www.w3.org/1999/xlink"
 xmlns:xodm="http://www.corel.com/coreldraw/odm/2003">
 <g>
  <path class="fil0" d="M429.52 1012.63c16.45,88.79 27.19,192.91 76.31,252.89 51.21,62.52 113.87,101.89 228.29,101.88 220.79,-0.01 441.58,-0.03 662.37,-0.03 107.99,0 222.05,3.58 329.27,0 122.92,-4.09 119.36,-143.12 28.34,-166.87 -45.12,-11.77 -264.75,-3.89 -328.45,-3.89l-658.2 0c-114.92,0.03 -151.1,-15.18 -159.15,-170.84 327.98,0 656,-0.37 983.98,0.01 85.7,0.1 136.96,-10.82 195.05,-51.79 48.28,-34.05 81.58,-89.64 97.53,-148.07 35.66,-130.57 69.85,-258.47 104.04,-387.88 13.93,-52.74 47.51,-150.02 40.03,-204.3 -8.59,-62.31 -63.81,-108.97 -128.09,-117.52 -53.09,-7.07 -1436.99,-1.68 -1470.82,-1.68l-38.01 -47.42c-11.66,-14.86 -27.34,-26.46 -46.06,-37.33 -43.5,-25.24 -81.06,-28.88 -136.71,-28.78 -40.33,0.08 -125.89,-5.12 -158.35,7.36 -33.87,13.02 -63.2,59.37 -45.63,107.78 38.18,105.2 236.95,24.81 262.53,66.75 7.56,12.38 152.46,779.65 161.73,829.73zm672.23 -365.48c-7.58,-11.31 -33.11,-34.23 -44.5,-45.62 -21.26,-21.27 -94.6,-99.04 -115.11,-110.24 -61.75,-33.73 -129.93,29.16 -102.05,93.13 9.39,21.55 27.33,36.81 40.3,49.78l135.18 135.18c21.6,21.6 61.53,75.43 119.29,49.11 20.03,-9.12 36.09,-29.11 48.57,-41.59l359.37 -359.36c73.18,-72.99 -6.7,-157.78 -75.74,-125.3 -22.13,10.41 -35.04,26.53 -49.31,40.81l-270.37 270.36c-9.23,9.23 -35.89,38.38 -45.63,43.74z"/>
  <path class="fil0" d="M457.12 1674.62c13.15,86.52 86.48,160.4 189.5,146.69 224.36,-29.86 177.13,-371.09 -45.43,-337.8 -84.31,12.61 -159.39,90.35 -144.07,191.11z"/>
  <path class="fil0" d="M1818.41 1678.78c18.23,-99.23 -56.53,-180.7 -141.08,-193.91 -52.06,-8.13 -100.16,8.46 -132.75,33.77 -30.24,23.48 -52.62,53.75 -62.39,104.22 -41.34,213.65 293.7,287.33 336.22,55.92z"/>
 </g>
</svg>
