<svg id='icon' xmlns="http://www.w3.org/2000/svg" xml:space="preserve" version="1.1" style="shape-rendering:geometricPrecision; text-rendering:geometricPrecision; image-rendering:optimizeQuality; fill-rule:evenodd; clip-rule:evenodd"
viewBox="0 0 2030 1822.96"
 xmlns:xlink="http://www.w3.org/1999/xlink"
 xmlns:xodm="http://www.corel.com/coreldraw/odm/2003">
 <g>
  <path class="fil0" d="M429.52 1012.63c16.45,88.79 27.19,192.91 76.31,252.89 51.21,62.52 113.87,101.89 228.29,101.88 220.79,-0.01 441.58,-0.03 662.37,-0.03 107.99,0 222.05,3.58 329.27,0 122.92,-4.09 119.36,-143.12 28.34,-166.87 -45.12,-11.77 -264.75,-3.89 -328.45,-3.89l-658.2 0c-114.92,0.03 -151.1,-15.18 -159.15,-170.84 327.98,0 656,-0.37 983.98,0.01 85.7,0.1 136.96,-10.82 195.05,-51.79 48.28,-34.05 81.58,-89.64 97.53,-148.07 35.66,-130.57 69.85,-258.47 104.04,-387.88 13.93,-52.74 47.51,-150.02 40.03,-204.3 -8.59,-62.31 -63.81,-108.97 -128.09,-117.52 -24.93,-3.32 -343.3,-3.89 -677.54,-3.57 1.19,136.71 4.73,384.63 4.73,465.75 29.01,-22.03 118.95,-125.74 146.23,-138.15 44.07,-20.04 82.39,-0.74 99.7,28.52 25.08,42.4 3.65,80.1 -19.68,103.36l-214.46 214.43c-17.14,17.14 -47.08,56.03 -87.76,56.64 -42.05,0.63 -70.43,-36.91 -87.8,-54.29l-215.64 -215.61c-75.75,-75.36 -1.19,-168 77.19,-133.76 21.83,9.53 59.72,52.57 75.55,68.21 12.44,12.28 23.13,22.85 35.57,35.13 11.15,11.01 25.28,26.8 36.76,35.52 0,-32 -3.15,-279.01 -4.6,-465.54 -324.54,0.55 -623.57,1.68 -639.07,1.68l-38.01 -47.42c-11.66,-14.86 -27.34,-26.46 -46.06,-37.33 -43.5,-25.24 -81.06,-28.88 -136.71,-28.78 -40.33,0.08 -125.89,-5.12 -158.35,7.36 -33.87,13.02 -63.2,59.37 -45.63,107.78 38.18,105.2 236.95,24.81 262.53,66.75 7.56,12.38 152.46,779.65 161.73,829.73z"/>
  <path class="fil0" d="M457.12 1674.62c13.15,86.52 86.48,160.4 189.5,146.69 224.36,-29.86 177.13,-371.09 -45.43,-337.8 -84.31,12.61 -159.39,90.35 -144.07,191.11z"/>
  <path class="fil0" d="M1818.41 1678.78c18.23,-99.23 -56.53,-180.7 -141.08,-193.91 -52.06,-8.13 -100.16,8.46 -132.75,33.77 -30.24,23.48 -52.62,53.75 -62.39,104.22 -41.34,213.65 293.7,287.33 336.22,55.92z"/>
 </g>
</svg>
