<?xml version="1.0" encoding="UTF-8"?>
<!DOCTYPE svg PUBLIC "-//W3C//DTD SVG 1.1//EN" "http://www.w3.org/Graphics/SVG/1.1/DTD/svg11.dtd">
<!-- Creator: CorelDRAW -->
<svg xmlns="http://www.w3.org/2000/svg" xml:space="preserve" width="234px" height="234px" version="1.1" style="shape-rendering:geometricPrecision; text-rendering:geometricPrecision; image-rendering:optimizeQuality; fill-rule:evenodd; clip-rule:evenodd"
viewBox="0 0 234 234"
 xmlns:xlink="http://www.w3.org/1999/xlink"
 xmlns:xodm="http://www.corel.com/coreldraw/odm/2003">
 <defs>
  <style type="text/css">
   <![CDATA[
    .fil0 {fill:none}
    .fil1 {fill:#2B2A29}
   ]]>
  </style>
 </defs>
 <g id="Слой_x0020_1">
  <metadata id="CorelCorpID_0Corel-Layer"/>
  <rect class="fil0" x="-0.84" y="0.06" width="234" height="234"/>
  <path class="fil1" d="M99.55 174.57c10.34,-8.47 18.43,-17.65 28.22,-26.37l21.3 -19.83c2.42,-2.21 4.11,-4.44 6.45,-6.55 11.56,-10.48 34.15,-30.1 44.91,-41.9 -1.7,-3.85 -13.15,-15.08 -15.72,-17.71 -4.09,1.43 -31.39,28.38 -37.69,34.03 -8.78,7.87 -43.36,42.36 -48.61,44.64l-33.17 -31.74c-3.27,-2.77 -4.96,-5.82 -8.55,-8.06 -3.96,2.56 -14.11,13.05 -16.47,17.55 4.52,5.85 8.22,9.2 13.16,13.42 7.39,6.31 41.72,40.85 46.17,42.52z"/>
 </g>
</svg>
