<?xml version="1.0" encoding="UTF-8"?>
<svg xmlns="http://www.w3.org/2000/svg"
viewBox="0 0 50 50"
 xmlns:xlink="http://www.w3.org/1999/xlink"
 xmlns:xodm="http://www.corel.com/coreldraw/odm/2003">
 <g>
  <g fill="#707070">
   <path d="M28.63 26.12c-0.25,-0.19 -0.47,-0.38 -0.72,-0.57l-3.4 -2.7c0.15,-0.49 0.31,-0.7 0.39,-1.33 0.08,-0.66 0.01,-1.03 -0.08,-1.66 1.95,0.04 3.37,0.78 4.51,2.23 1.08,1.38 1.39,4.14 0.69,5.12 -0.46,-0.31 -0.92,-0.73 -1.39,-1.09zm-12.49 -9.85c0.63,-0.66 3.24,-1.87 4.26,-2.2 1.7,-0.54 3.7,-0.87 5.62,-0.7 1.92,0.17 3.54,0.61 5.13,1.38 0.82,0.39 1.4,0.72 2.09,1.16 0.83,0.54 1.16,0.88 1.82,1.36 0.2,0.15 0.24,0.23 0.44,0.39l2.02 2.06c1.25,1.31 2.73,3.63 3.53,5.32 0.2,0.43 -0.07,0.74 -0.53,1.59 -0.38,0.69 -0.82,1.41 -1.24,2.01 -0.47,0.65 -0.9,1.26 -1.39,1.86 -0.5,0.62 -1.02,1.13 -1.53,1.63 -0.18,-0.08 -0.78,-0.56 -0.95,-0.7l-2.69 -2.16c0.13,-0.44 0.37,-0.84 0.53,-1.36 0.77,-2.55 0.41,-5.48 -1.13,-7.55 -0.47,-0.63 -1.17,-1.46 -1.79,-1.91 -1.49,-1.07 -3.33,-1.93 -5.69,-1.84 -1.53,0.06 -3.13,0.54 -4.36,1.35l-1.08 0.74c-0.17,-0.1 -0.28,-0.2 -0.44,-0.32l-1.14 -0.9c-0.25,-0.2 -1.36,-1.01 -1.48,-1.21zm-12.81 -6.04c0.27,0.58 2.23,1.98 2.8,2.41 5.18,3.99 10.41,8.16 15.6,12.22l22.41 17.56c1.41,0.94 3.02,-0.47 2.46,-1.93 -0.22,-0.58 -1.26,-1.29 -1.78,-1.69 -0.67,-0.51 -1.3,-1.01 -1.95,-1.52 -0.56,-0.44 -3.55,-2.82 -3.91,-2.99 0.11,-0.43 0.23,-0.31 0.5,-0.62l1.38 -1.65c1.07,-1.33 2.4,-3.42 3.15,-5.02 0.63,-1.35 0.76,-1.65 0.13,-3.08 -1.04,-2.36 -2.41,-4.25 -3.99,-6.21 -0.19,-0.23 -0.31,-0.28 -0.51,-0.54 -0.33,-0.44 -2.11,-2.14 -2.53,-2.46l-2.35 -1.73c-5.51,-3.74 -13.26,-3.8 -18.92,-0.39 -0.8,0.48 -1.72,1.05 -2.4,1.61l-7.29 -5.71c-0.2,-0.16 -0.26,-0.22 -0.48,-0.36 -1.38,-0.84 -3,0.63 -2.32,2.1z"/>
   <path d="M30.69 36.12c-0.61,0.15 -1.33,0.47 -2.02,0.67 -2.24,0.64 -4.8,0.64 -7.03,0.1 -2.34,-0.55 -4.34,-1.64 -6.18,-3.04 -0.25,-0.19 -0.54,-0.41 -0.72,-0.57l-2.63 -2.66c-1.13,-1.4 -2.33,-3.06 -3.15,-4.78 -0.23,-0.49 -0.32,-0.44 -0.07,-0.91 0.76,-1.46 1.51,-2.82 2.49,-4 -0.19,-0.16 -0.38,-0.35 -0.61,-0.53l-1.92 -1.48c-0.07,0.06 -0.02,0 -0.12,0.11l-1.34 1.91c-0.45,0.74 -0.85,1.41 -1.26,2.22 -1.26,2.44 -0.78,2.83 0.39,5.04 1.37,2.58 2.95,4.4 4.88,6.45l1.31 1.19c0.64,0.5 1.28,1.02 2,1.48 4.21,2.75 8.64,3.87 13.75,2.87 1.36,-0.27 4.09,-1.14 5.02,-1.85l-0.35 -0.32c-0.12,-0.09 -0.22,-0.18 -0.34,-0.27l-2.1 -1.63z"/>
   <path d="M27.51 33.63c-0.56,-0.53 -2.64,-2.09 -3.44,-2.73 -0.77,-0.62 -1.24,-0.32 -2.52,-1.33 -0.43,-0.35 -0.87,-0.84 -1.17,-1.32 -0.49,-0.79 -0.55,-0.68 -1.3,-1.28l-2.81 -2.21c-0.17,1.6 0.26,3.06 0.84,4.34 0.75,1.69 2.27,3.13 3.83,3.95 2.4,1.25 4.22,1.05 6.57,0.58z"/>
  </g>
 </g>
</svg>