<svg width="21.000000" height="16.000000" viewBox="0 0 21 16" fill="none" xmlns="http://www.w3.org/2000/svg" xmlns:xlink="http://www.w3.org/1999/xlink">
	<desc>
			Created with Pixso.
	</desc>
	<defs/>
	<path id="Vector" d="M4.83 12.59L15.09 2.34C13.6 1.28 11.85 0.49 10 0.49C4.47 0.49 0 7.49 0 7.49C0 7.49 1.93 10.52 4.83 12.59ZM7.6 14.07C8.37 14.33 9.17 14.49 10 14.49C15.52 14.49 20 7.49 20 7.49C20 7.49 19 5.94 17.37 4.29M6 7.49C6 8.51 6.37 9.43 7 10.14L12.86 4.69C12.13 3.95 11.12 3.49 10 3.49C7.79 3.49 6 5.28 6 7.49ZM3.06 14.49L17.55 1.52e-5" stroke="#707070" stroke-opacity="1.000000" stroke-width="1.500000" stroke-linejoin="round"/>
</svg>
