<svg width="45.000000" height="45.000000" viewBox="-5 10 50 50" fill="none" xmlns="http://www.w3.org/2000/svg" xmlns:xlink="http://www.w3.org/1999/xlink">
	<desc>
			Created with Pixso.
	</desc>
	<defs>
		<clipPath id="clip12_813">
			<rect id="logo 3" width="45.000000" height="45.000000" transform="translate(0.000000 16.000000)" fill="white" fill-opacity="0"/>
		</clipPath>
	</defs>
	<rect id="logo 3" width="45.000000" height="45.000000" transform="translate(0.000000 16.000000)" fill="#FFFFFF" fill-opacity="0"/>
	<g clip-path="url(#clip12_813)">
		<path id="Vector" d="M5.89 29.79C-0.46 35.3 -1.33 43.82 3.7 49.83C4.48 50.75 5.32 51.48 6.26 52.24C13.95 48.14 13.83 34.26 5.89 29.79Z" fill="#AA4E41" fill-opacity="1.000000" fill-rule="evenodd"/>
		<path id="Vector" d="M17.98 40.42C25.5 35.47 25.49 22.4 17.37 18.05C10.35 24.55 9.98 34.54 17.98 40.42Z" fill="#AA4E41" fill-opacity="1.000000" fill-rule="evenodd"/>
		<path id="Vector" d="M21.11 43.46C24.61 47.4 28.74 48.88 32.49 48.82C35.91 48.76 41.07 47.38 43.84 42.84C37.98 35.76 26.1 35.44 21.11 43.46Z" fill="#AA4E41" fill-opacity="1.000000" fill-rule="evenodd"/>
		<path id="Vector" d="M9.52 54.93C12.24 59.33 17.27 60.63 21.03 60.58C25.1 60.53 28.87 59.07 32.31 54.77C26 47.21 15.49 47.62 9.52 54.93Z" fill="#AA4E41" fill-opacity="1.000000" fill-rule="evenodd"/>
		<path id="Vector" d="M28.3 32.8C31.39 34.2 37.4 31.95 40.38 28.86C43.4 25.73 45.39 19.91 43.89 16.9C36.18 14.83 25.85 24.91 28.3 32.8Z" fill="#AA4E41" fill-opacity="1.000000" fill-rule="evenodd"/>
	</g>
</svg>
