<svg width="22" height="22" viewBox="0 0 22 22" fill="none" xmlns="http://www.w3.org/2000/svg">
<path d="M21.1394 2.01213H8.03227C7.67192 0.843976 6.6596 0 5.46938 0C4.27915 0 3.26684 0.843976 2.90649 2.01213H0.860569C0.385306 2.01213 0 2.43268 0 2.95141C0 3.47015 0.385306 3.89069 0.860569 3.89069H2.90654C3.26689 5.05885 4.27921 5.90282 5.46944 5.90282C6.65966 5.90282 7.67198 5.05885 8.03233 3.89069H21.1394C21.6147 3.89069 22 3.47015 22 2.95141C22 2.43268 21.6147 2.01213 21.1394 2.01213ZM5.46938 4.02426C4.92739 4.02426 4.48643 3.54297 4.48643 2.95141C4.48643 2.35985 4.92739 1.87856 5.46938 1.87856C6.01136 1.87856 6.45232 2.35985 6.45232 2.95141C6.45232 3.54297 6.01136 4.02426 5.46938 4.02426Z" fill="#AA4E41"/>
<path d="M21.1394 10.0607H19.0934C18.733 8.89256 17.7207 8.04858 16.5305 8.04858C15.3403 8.04858 14.328 8.89256 13.9677 10.0607H0.860569C0.385306 10.0607 0 10.4813 0 11C0 11.5187 0.385306 11.9393 0.860569 11.9393H13.9677C14.328 13.1074 15.3404 13.9514 16.5306 13.9514C17.7207 13.9514 18.7331 13.1074 19.0935 11.9393H21.1394C21.6147 11.9393 22 11.5187 22 11C22 10.4813 21.6147 10.0607 21.1394 10.0607ZM16.5306 12.0728C15.9886 12.0728 15.5476 11.5916 15.5476 11C15.5476 10.4084 15.9886 9.92715 16.5306 9.92715C17.0725 9.92715 17.5135 10.4084 17.5135 11C17.5135 11.5916 17.0725 12.0728 16.5306 12.0728Z" fill="#AA4E41"/>
<path d="M21.1394 18.1093H11.7193C11.359 16.9411 10.3467 16.0972 9.15646 16.0972C7.96623 16.0972 6.95392 16.9411 6.59357 18.1093H0.860569C0.385306 18.1093 0 18.5298 0 19.0486C0 19.5673 0.385306 19.9879 0.860569 19.9879H6.59357C6.95392 21.156 7.96623 22 9.15646 22C10.3467 22 11.359 21.156 11.7193 19.9879H21.1394C21.6147 19.9879 22 19.5673 22 19.0486C22 18.5298 21.6147 18.1093 21.1394 18.1093ZM9.15646 20.1215C8.61447 20.1215 8.17352 19.6402 8.17352 19.0486C8.17352 18.4571 8.61447 17.9758 9.15646 17.9758C9.69845 17.9758 10.1394 18.457 10.1394 19.0486C10.1394 19.6401 9.69845 20.1215 9.15646 20.1215Z" fill="#AA4E41"/>
</svg>
