<svg width="345.000000" height="78.000000" viewBox="0 0 345 78" fill="none" xmlns="http://www.w3.org/2000/svg" xmlns:xlink="http://www.w3.org/1999/xlink">
	<desc>
			Created with Pixso.
	</desc>
	<defs>
		<clipPath id="clip12_813">
			<rect id="logo 3" width="45.000000" height="45.000000" transform="translate(0.000000 16.000000)" fill="white" fill-opacity="0"/>
		</clipPath>
		<clipPath id="clip12_821">
			<rect id="logo 4" width="45.000000" height="45.000000" transform="matrix(-1 0 0 1 345 19)" fill="white" fill-opacity="0"/>
		</clipPath>
	</defs>
	<rect id="h1" width="245.000000" height="78.000000" transform="translate(50.000000 0.000000)" fill="#FFFFFF" fill-opacity="0"/>
	<path id="brioches" d="M65.03 59.22Q67.88 60.71 71.54 60.71Q75.71 60.71 78.89 58.95Q79.1 58.83 79.31 58.71Q80.78 57.82 81.96 56.64Q83.46 55.15 84.48 53.18Q86.31 49.67 86.31 45.17Q86.31 40.67 84.48 37.14Q83.4 35.05 81.8 33.48Q80.69 32.39 79.34 31.56Q79.07 31.4 78.8 31.25Q75.69 29.51 71.6 29.51Q67.47 29.51 64.79 31.25Q62.13 33 60.69 35.15L60.69 16.8L55.65 16.8L55.65 60L60.21 60L60.69 55.01Q61.24 56 61.97 56.83Q63.23 58.26 65.03 59.22ZM116.47 23.25Q117.22 23.64 118.17 23.64Q118.94 23.64 119.58 23.36Q120.15 23.11 120.62 22.66Q121.04 22.25 121.29 21.75Q121.64 21.04 121.64 20.15Q121.64 19.38 121.35 18.74Q121.09 18.2 120.62 17.76Q120.16 17.33 119.62 17.09Q118.96 16.8 118.17 16.8Q117.2 16.8 116.44 17.2Q116.02 17.42 115.67 17.76Q115.26 18.16 115.02 18.65Q114.69 19.32 114.69 20.15Q114.69 21.1 115.08 21.85Q115.31 22.29 115.67 22.66Q116.04 23.02 116.47 23.25ZM199.17 16.8L199.17 60L204.21 60L204.21 44.57Q204.21 39.56 206.7 36.79Q206.77 36.71 206.85 36.63Q208.11 35.29 209.66 34.59Q211.35 33.83 213.38 33.83Q216.33 33.83 218.13 35.28Q220.88 37.5 220.88 43.13L220.88 60L225.86 60L225.86 42.59Q225.86 35.94 222.74 32.73Q221.87 31.84 220.85 31.19Q218.19 29.51 214.46 29.51Q212.56 29.51 210.83 30.04Q209.6 30.41 208.46 31.05Q207.08 31.81 206.01 32.89Q204.96 33.96 204.21 35.34L204.21 16.8L199.17 16.8ZM93.33 30.23L93.33 60L98.37 60L98.37 45Q98.37 41.1 99.69 38.89Q100.6 37.35 101.93 36.43Q102.53 36.02 103.22 35.74Q105.45 34.8 108.08 34.8L109.46 34.8L109.46 29.51Q105.33 29.51 102.5 31.25Q100.94 32.22 99.82 33.56Q98.92 34.63 98.31 35.94L97.89 30.23L93.33 30.23ZM136.9 59.52Q139.69 60.71 143 60.71Q146.33 60.71 149.14 59.51Q149.88 59.19 150.59 58.79Q151.94 58.03 153.06 57.02Q154.77 55.49 155.96 53.37Q157.94 49.86 157.94 45.11Q157.94 40.38 155.99 36.87Q154.78 34.68 153.02 33.11Q151.95 32.15 150.68 31.43Q150 31.04 149.29 30.74Q146.48 29.51 143.13 29.51Q139.85 29.51 137.05 30.69Q136.27 31.01 135.53 31.43Q134.26 32.15 133.19 33.09Q131.41 34.67 130.17 36.87Q128.19 40.38 128.19 45.11Q128.19 49.86 130.14 53.37Q131.36 55.56 133.12 57.13Q134.18 58.07 135.44 58.79Q136.15 59.2 136.9 59.52ZM172.31 59.43Q175.2 60.71 178.65 60.71Q182.92 60.71 186.13 58.87Q186.89 58.44 187.59 57.9Q189.49 56.44 190.64 54.52Q191.71 52.74 192.14 50.58L186.99 50.58Q186.66 52.11 185.82 53.26Q185.11 54.23 184.04 54.93Q183.64 55.19 183.22 55.4Q181.16 56.45 178.58 56.45Q177.52 56.45 176.5 56.22Q175.12 55.91 173.83 55.16Q173.57 55.01 173.32 54.84Q171.46 53.57 170.24 51.35Q168.87 48.83 168.87 45.11Q168.87 41.39 170.24 38.87Q171.46 36.64 173.34 35.4Q173.58 35.24 173.83 35.09Q175.08 34.39 176.41 34.08Q177.47 33.83 178.58 33.83Q181.13 33.83 183.15 34.86Q183.61 35.09 184.04 35.37Q185.18 36.11 185.91 37.14Q186.68 38.23 186.99 39.65L192.14 39.65Q191.6 37.03 190.2 35.02Q189.13 33.47 187.56 32.28Q186.96 31.82 186.32 31.44Q183.06 29.51 178.65 29.51Q175.2 29.51 172.31 30.79Q171.63 31.09 170.99 31.46Q169.64 32.24 168.52 33.27Q166.83 34.81 165.66 36.92Q163.71 40.44 163.71 45.11Q163.71 49.8 165.66 53.32Q166.81 55.38 168.46 56.91Q169.6 57.97 170.99 58.76Q171.63 59.13 172.31 59.43ZM240.17 59.23Q243.15 60.71 246.87 60.71Q251.64 60.71 254.87 58.47Q255.21 58.24 255.52 57.99Q257.36 56.51 258.55 54.62Q259.57 53.02 260.12 51.12L255.14 51.12Q254.58 52.58 253.6 53.68Q252.93 54.43 252.08 55.01Q249.99 56.45 246.87 56.45Q245.73 56.45 244.66 56.2Q243.45 55.92 242.32 55.32Q242.02 55.16 241.73 54.97Q240 53.85 238.79 51.92Q237.39 49.67 237.21 46.25L260.9 46.25Q260.9 45.42 260.93 44.76Q260.97 44.1 260.97 43.44Q260.97 41.33 260.41 39.38Q260 37.95 259.29 36.6Q258.6 35.3 257.67 34.2Q256.32 32.61 254.45 31.46Q254.39 31.42 254.32 31.38Q251.22 29.51 246.98 29.51Q242.86 29.51 239.67 31.24Q239.47 31.35 239.28 31.46Q237.96 32.23 236.88 33.24Q235.22 34.8 234.09 36.92Q232.23 40.44 232.23 45.11Q232.23 49.86 234.12 53.34Q235.28 55.47 236.96 57.02Q238.03 58.01 239.31 58.76Q239.73 59.02 240.17 59.23ZM270.74 58.45Q274.13 60.71 279.03 60.71Q284.28 60.71 287.36 58.13Q287.38 58.12 287.39 58.11Q288.95 56.79 289.71 55.11Q290.45 53.46 290.42 51.47Q290.42 48.23 288.83 46.53Q288.81 46.51 288.79 46.49Q287.21 44.81 284.76 43.96Q282.26 43.08 279.51 42.48Q276.26 41.76 274.37 40.75Q273.11 40.07 272.69 39.04Q272.48 38.52 272.48 37.92Q272.48 36.99 272.85 36.23Q273.21 35.49 273.94 34.92Q275.42 33.77 278.12 33.77Q280.89 33.77 282.53 35.06Q283.09 35.5 283.49 36.05Q284.29 37.12 284.49 38.64L289.47 38.64Q289.12 35.49 287.46 33.38Q286.81 32.55 285.96 31.88Q285.79 31.75 285.61 31.63Q282.66 29.51 278.19 29.51Q273.3 29.51 270.4 31.92Q270.35 31.96 270.3 32Q268.91 33.19 268.18 34.7Q267.38 36.35 267.38 38.39Q267.38 40.48 268.34 41.94Q268.62 42.37 268.99 42.75Q270.62 44.39 273.02 45.3Q275.42 46.2 277.83 46.68Q281.37 47.4 283.32 48.31Q283.92 48.58 284.34 49.03Q285.27 50.04 285.27 51.89Q285.27 52.59 285.05 53.22Q284.7 54.26 283.76 55.1Q282.26 56.45 279.09 56.45Q275.68 56.45 273.68 54.78Q273.67 54.76 273.65 54.75Q272.19 53.5 271.54 51.92Q271.29 51.33 271.16 50.69L266.01 50.69Q266.35 53.39 267.7 55.44Q268.67 56.9 270.14 58.02Q270.43 58.24 270.74 58.45ZM115.64 30.23L115.64 60L120.69 60L120.69 30.23L115.64 30.23ZM243.27 34.39Q244.95 33.77 246.87 33.77Q249.44 33.77 251.46 34.83Q252.4 35.33 253.22 36.06Q253.86 36.62 254.35 37.28Q255.85 39.32 255.99 42.36L237.27 42.36Q237.59 39.1 239.33 37.06Q239.84 36.46 240.46 35.97Q241.78 34.94 243.27 34.39ZM145.63 56.04Q144.37 56.39 143 56.39Q141.79 56.39 140.66 56.1Q139.43 55.79 138.28 55.13Q138.12 55.04 137.95 54.93Q136 53.68 134.72 51.35Q133.35 48.83 133.35 45.11Q133.35 41.39 134.72 38.87Q135.94 36.64 137.82 35.4Q138.06 35.24 138.31 35.09Q139.31 34.53 140.38 34.22Q141.7 33.83 143.13 33.83Q144.29 33.83 145.39 34.1Q146.67 34.41 147.86 35.09Q148.21 35.29 148.54 35.52Q150.3 36.75 151.44 38.87Q152.78 41.39 152.78 45.11Q152.78 48.83 151.41 51.35Q150.21 53.54 148.38 54.78Q148.1 54.97 147.81 55.13Q146.76 55.72 145.63 56.04ZM75.7 55.26Q73.63 56.33 71 56.33Q68.41 56.33 66.35 55.28Q66.02 55.12 65.71 54.93Q65.08 54.54 64.53 54.06Q63.08 52.82 62.13 51Q60.81 48.48 60.81 45.11Q60.81 41.76 62.13 39.24Q63.08 37.42 64.53 36.18Q65.08 35.7 65.71 35.31Q66.06 35.1 66.41 34.92Q68.45 33.89 71 33.89Q73.59 33.89 75.63 34.94Q75.96 35.11 76.28 35.31Q76.95 35.73 77.54 36.24Q78.95 37.46 79.88 39.24Q81.21 41.76 81.21 45.11Q81.21 48.48 79.88 51Q78.95 52.77 77.54 54Q76.95 54.51 76.28 54.93Q75.99 55.1 75.7 55.26Z" fill="#AA4E41" fill-opacity="1.000000" fill-rule="evenodd"/>
	<rect id="logo 3" width="45.000000" height="45.000000" transform="translate(0.000000 16.000000)" fill="#FFFFFF" fill-opacity="0"/>
	<g clip-path="url(#clip12_813)">
		<path id="Vector" d="M5.89 29.79C-0.46 35.3 -1.33 43.82 3.7 49.83C4.48 50.75 5.32 51.48 6.26 52.24C13.95 48.14 13.83 34.26 5.89 29.79Z" fill="#AA4E41" fill-opacity="1.000000" fill-rule="evenodd"/>
		<path id="Vector" d="M17.98 40.42C25.5 35.47 25.49 22.4 17.37 18.05C10.35 24.55 9.98 34.54 17.98 40.42Z" fill="#AA4E41" fill-opacity="1.000000" fill-rule="evenodd"/>
		<path id="Vector" d="M21.11 43.46C24.61 47.4 28.74 48.88 32.49 48.82C35.91 48.76 41.07 47.38 43.84 42.84C37.98 35.76 26.1 35.44 21.11 43.46Z" fill="#AA4E41" fill-opacity="1.000000" fill-rule="evenodd"/>
		<path id="Vector" d="M9.52 54.93C12.24 59.33 17.27 60.63 21.03 60.58C25.1 60.53 28.87 59.07 32.31 54.77C26 47.21 15.49 47.62 9.52 54.93Z" fill="#AA4E41" fill-opacity="1.000000" fill-rule="evenodd"/>
		<path id="Vector" d="M28.3 32.8C31.39 34.2 37.4 31.95 40.38 28.86C43.4 25.73 45.39 19.91 43.89 16.9C36.18 14.83 25.85 24.91 28.3 32.8Z" fill="#AA4E41" fill-opacity="1.000000" fill-rule="evenodd"/>
	</g>
	<rect id="logo 4" width="45.000000" height="45.000000" transform="matrix(-1 0 0 1 345 19)" fill="#FFFFFF" fill-opacity="0"/>
	<g clip-path="url(#clip12_821)">
		<path id="Vector" d="M339.1 32.79C345.45 38.3 346.32 46.82 341.29 52.83C340.51 53.75 339.67 54.48 338.73 55.24C331.05 51.14 331.16 37.26 339.1 32.79Z" fill="#AA4E41" fill-opacity="1.000000" fill-rule="evenodd"/>
		<path id="Vector" d="M327.01 43.42C319.49 38.47 319.5 25.4 327.62 21.05C334.64 27.55 335.01 37.54 327.01 43.42Z" fill="#AA4E41" fill-opacity="1.000000" fill-rule="evenodd"/>
		<path id="Vector" d="M323.88 46.46C320.38 50.4 316.25 51.88 312.51 51.82C309.09 51.76 303.92 50.38 301.15 45.84C307.01 38.76 318.89 38.44 323.88 46.46Z" fill="#AA4E41" fill-opacity="1.000000" fill-rule="evenodd"/>
		<path id="Vector" d="M335.47 57.93C332.76 62.33 327.72 63.63 323.96 63.58C319.89 63.53 316.12 62.07 312.68 57.77C318.99 50.21 329.5 50.62 335.47 57.93Z" fill="#AA4E41" fill-opacity="1.000000" fill-rule="evenodd"/>
		<path id="Vector" d="M316.69 35.8C313.6 37.2 307.59 34.95 304.61 31.86C301.59 28.73 299.6 22.91 301.1 19.9C308.81 17.83 319.14 27.91 316.69 35.8Z" fill="#AA4E41" fill-opacity="1.000000" fill-rule="evenodd"/>
	</g>
</svg>
