<svg width="21" height="21" viewBox="0 0 21 21" fill="none" xmlns="http://www.w3.org/2000/svg">
<path fill-rule="evenodd" clip-rule="evenodd" d="M15.6431 14.1395L19.8645 18.3642C20.053 18.5738 20.0437 18.8947 19.8434 19.093L19.1047 19.8323C19.0056 19.9323 18.8707 19.9885 18.73 19.9885C18.5893 19.9885 18.4544 19.9323 18.3553 19.8323L14.1339 15.6076C14.0172 15.4906 13.9112 15.3633 13.8173 15.2273L13.0258 14.1711C11.7162 15.2178 10.0898 15.7876 8.41388 15.7871C4.96034 15.7991 1.95934 13.4149 1.18757 10.046C0.415791 6.67715 2.07921 3.2227 5.19304 1.7278C8.30686 0.232908 12.0401 1.09654 14.1825 3.8074C16.3249 6.51826 16.3047 10.3529 14.1339 13.041L15.1893 13.7698C15.3541 13.8754 15.5063 13.9994 15.6431 14.1395ZM3.13727 8.39354C3.13727 11.3101 5.49976 13.6745 8.41405 13.6745C9.81354 13.6745 11.1557 13.1181 12.1453 12.1277C13.1349 11.1374 13.6908 9.79414 13.6908 8.39354C13.6908 5.47695 11.3283 3.11258 8.41405 3.11258C5.49976 3.11258 3.13727 5.47695 3.13727 8.39354Z" fill="#707070"/>
<path d="M19.8645 18.3642L20.1433 18.1134L20.1367 18.1061L20.1298 18.0992L19.8645 18.3642ZM15.6431 14.1395L15.3747 14.4014L15.3778 14.4045L15.6431 14.1395ZM19.8434 19.093L19.5796 18.8265L19.5781 18.8279L19.8434 19.093ZM19.1047 19.8323L18.8394 19.5673L18.8383 19.5683L19.1047 19.8323ZM18.3553 19.8323L18.6217 19.5683L18.6206 19.5673L18.3553 19.8323ZM14.1339 15.6076L13.8685 15.8725L13.8686 15.8726L14.1339 15.6076ZM13.8173 15.2273L14.1259 15.0143L14.1218 15.0083L14.1174 15.0024L13.8173 15.2273ZM13.0258 14.1711L13.3259 13.9463L13.0939 13.6367L12.7917 13.8782L13.0258 14.1711ZM8.41388 15.7871L8.41399 15.4121L8.41258 15.4121L8.41388 15.7871ZM1.18757 10.046L1.5531 9.96229L1.18757 10.046ZM5.19304 1.7278L5.03074 1.38974L5.19304 1.7278ZM14.1825 3.8074L13.8882 4.03992L14.1825 3.8074ZM14.1339 13.041L13.8422 12.8054L13.5882 13.1199L13.9208 13.3496L14.1339 13.041ZM15.1893 13.7698L14.9761 14.0785L14.987 14.0856L15.1893 13.7698ZM20.1298 18.0992L15.9083 13.8744L15.3778 14.4045L19.5992 18.6293L20.1298 18.0992ZM20.1072 19.3595C20.4498 19.0204 20.4657 18.4718 20.1433 18.1134L19.5857 18.615C19.6404 18.6758 19.6377 18.769 19.5796 18.8265L20.1072 19.3595ZM19.3699 20.0974L20.1087 19.358L19.5781 18.8279L18.8394 19.5673L19.3699 20.0974ZM18.73 20.3635C18.9708 20.3635 19.2015 20.2673 19.371 20.0963L18.8383 19.5683C18.8096 19.5973 18.7706 19.6135 18.73 19.6135V20.3635ZM18.089 20.0963C18.2585 20.2673 18.4892 20.3635 18.73 20.3635V19.6135C18.6894 19.6135 18.6504 19.5973 18.6217 19.5683L18.089 20.0963ZM13.8686 15.8726L18.0901 20.0974L18.6206 19.5673L14.3992 15.3425L13.8686 15.8726ZM13.5087 15.4403C13.6154 15.5949 13.7358 15.7396 13.8685 15.8725L14.3993 15.3426C14.2985 15.2416 14.207 15.1318 14.1259 15.0143L13.5087 15.4403ZM12.7257 14.396L13.5172 15.4522L14.1174 15.0024L13.3259 13.9463L12.7257 14.396ZM8.41377 16.1621C10.1749 16.1626 11.8838 15.5638 13.2599 14.4641L12.7917 13.8782C11.5485 14.8717 10.0048 15.4126 8.41399 15.4121L8.41377 16.1621ZM0.822036 10.1298C1.63292 13.6694 4.78612 16.1747 8.41518 16.1621L8.41258 15.4121C5.13456 15.4235 2.28576 13.1605 1.5531 9.96229L0.822036 10.1298ZM5.03074 1.38974C1.7588 2.96055 0.0111622 6.59023 0.822036 10.1298L1.5531 9.96229C0.820419 6.76408 2.39963 3.48485 5.35533 2.06586L5.03074 1.38974ZM14.4767 3.57488C12.2256 0.726472 8.30277 -0.181104 5.03074 1.38974L5.35533 2.06586C8.31095 0.646919 11.8545 1.4666 13.8882 4.03992L14.4767 3.57488ZM14.4257 13.2766C16.7065 10.4522 16.7277 6.4232 14.4767 3.57488L13.8882 4.03992C15.922 6.61332 15.9029 10.2536 13.8422 12.8054L14.4257 13.2766ZM15.4024 13.4612L14.347 12.7324L13.9208 13.3496L14.9762 14.0784L15.4024 13.4612ZM15.9114 13.8775C15.7548 13.717 15.5804 13.575 15.3915 13.454L14.987 14.0856C15.1278 14.1758 15.2579 14.2817 15.3747 14.4014L15.9114 13.8775ZM8.41405 13.2995C5.70715 13.2995 3.51227 11.1033 3.51227 8.39354H2.76227C2.76227 11.517 5.29238 14.0495 8.41405 14.0495V13.2995ZM11.88 11.8627C10.9607 12.7827 9.71398 13.2995 8.41405 13.2995V14.0495C9.91309 14.0495 11.3507 13.4535 12.4106 12.3928L11.88 11.8627ZM13.3158 8.39354C13.3158 9.69478 12.7993 10.9427 11.88 11.8627L12.4106 12.3928C13.4704 11.3321 14.0658 9.8935 14.0658 8.39354H13.3158ZM8.41405 3.48758C11.1209 3.48758 13.3158 5.68377 13.3158 8.39354H14.0658C14.0658 5.27012 11.5357 2.73758 8.41405 2.73758V3.48758ZM3.51227 8.39354C3.51227 5.68377 5.70715 3.48758 8.41405 3.48758V2.73758C5.29238 2.73758 2.76227 5.27012 2.76227 8.39354H3.51227Z" fill="white"/>
</svg>
