<?xml version="1.0" encoding="UTF-8"?>
<svg xmlns="http://www.w3.org/2000/svg"
viewBox="0 0 50 50"
 xmlns:xlink="http://www.w3.org/1999/xlink"
 xmlns:xodm="http://www.corel.com/coreldraw/odm/2003">
 <g>
  <g  fill="#707070">
   <path d="M24.01 13.4c4.27,-0.36 8,1.56 10.5,3.49 0.38,0.28 0.62,0.55 0.97,0.83 0.45,0.35 1.78,1.75 2.19,2.25 1.04,1.24 2.35,3.06 3.12,4.7 0.35,0.74 0.36,0.49 0.03,1.21 -0.93,1.97 -2.79,4.54 -4.42,6.11 -0.28,0.27 -0.56,0.6 -0.88,0.86 -0.65,0.53 -1.23,1.04 -1.97,1.56 -5.98,4.16 -12.64,3.54 -18.2,-0.7 -0.17,-0.12 -0.37,-0.27 -0.5,-0.4l-1.35 -1.28c-1.61,-1.55 -3.4,-3.97 -4.43,-6.1 -0.35,-0.7 -0.36,-0.52 -0.03,-1.21 0.64,-1.32 2.2,-3.69 3.18,-4.79l1.24 -1.32c1.57,-1.51 2.93,-2.72 5.03,-3.7 1.84,-0.86 3.28,-1.32 5.52,-1.51zm20.37 12.39c0.27,-1.08 -0.6,-2.4 -1.03,-3.22 -1.02,-1.94 -1.87,-2.99 -3.09,-4.59l-1.54 -1.69c-1.01,-1.01 -1.25,-1.17 -2.28,-2.01 -4.95,-4.08 -12.29,-5.4 -18.29,-2.8 -2.32,1.01 -4.74,2.52 -6.48,4.35 -0.69,0.73 -1.45,1.39 -2.13,2.24 -0.18,0.22 -0.29,0.36 -0.47,0.58 -0.99,1.29 -3.19,4.61 -3.57,6.13 -0.42,1.67 2.52,5.81 3.6,7.21l1.01 1.17c0.43,0.55 2.14,2.24 2.73,2.69 0.2,0.15 0.39,0.32 0.58,0.47 2.99,2.47 7,3.99 10.98,4.14 3.59,0.14 7.33,-0.98 10.19,-2.83 0.45,-0.29 0.9,-0.58 1.3,-0.88l3.42 -3.05c0.22,-0.22 0.31,-0.42 0.51,-0.62l0.51 -0.55c0.17,-0.22 0.29,-0.36 0.46,-0.58 0.17,-0.22 0.29,-0.35 0.46,-0.6 0.79,-1.18 2.72,-3.89 3.13,-5.56z"/>
   <path d="M24.81 19.88c5.31,0.1 7.17,6.11 3.93,9.26 -3.37,3.28 -9.15,1.16 -9.23,-3.96 1.57,0.13 2.82,0.23 4.15,-1.19 1.08,-1.13 1.42,-2.09 1.15,-4.11zm-1.19 -3.13c-1.24,0.19 -2.26,0.56 -3.19,1.15 -5.42,3.41 -5.36,10.75 -0.88,14.18 0.8,0.61 1.61,1.12 2.79,1.49 6.11,1.91 12.14,-3.3 11.16,-9.57 -0.68,-4.34 -4.73,-8.05 -9.88,-7.25z"/>
  </g>
 </g>
</svg>
