<svg id='svgElem'  viewBox="0 0 19 20"  xmlns="http://www.w3.org/2000/svg" >
	<path id="Vector" d="M3.87 0.31L7.22 3.86C7.63 4.3 7.63 4.99 7.22 5.43L5.6 7.15C6.62 10.26 8.89 12.74 11.77 13.92L12.09 14.04L13.62 12.41C14.05 11.95 14.77 11.93 15.23 12.37L18.57 15.92C18.99 16.36 18.99 17.05 18.57 17.49L17.74 18.37C16.22 19.99 13.91 20.44 11.87 19.53C9 18.23 6.68 16.65 4.92 14.77C3.15 12.9 1.66 10.44 0.44 7.38C-0.39 5.31 -0.03 2.96 1.34 1.35L1.52 1.15L2.27 0.35C2.7 -0.11 3.42 -0.13 3.87 0.31Z" />
</svg>
