<svg id='svgElem'  viewBox="0 0 130 47" fill="none" xmlns="http://www.w3.org/2000/svg" xmlns:xlink="http://www.w3.org/1999/xlink">
	<path id="Vector" d="M73.33 -0.1C69.63 0.76 67.79 2.72 67.77 5.81C67.75 9.42 69.76 11.07 76.23 12.76C79.37 13.58 80.44 15 78.95 16.38C77.26 17.94 73.96 16.93 73.55 14.71C73.34 13.61 73.35 13.61 69.89 13.81L66.82 13.98L66.97 14.94C67.2 16.43 68.43 18.74 69.47 19.64C72.58 22.29 81.12 22.02 84.05 19.17L84.91 18.33L85.07 19.3C85.67 22.87 89.29 26.23 93.46 27.07L94.79 27.35L94 28.38C91.4 31.8 91.32 38.8 93.86 42.43C97.73 47.99 108.64 47.83 112.23 42.16L112.9 41.1L112.9 46.14L129.81 46.14L129.81 40.73L119.71 40.73L119.71 24.97L112.9 24.97L112.89 27.38C112.88 29.35 112.82 29.7 112.59 29.33C111.3 27.2 108.78 25.44 106.31 24.93L104.98 24.65L106.33 23.63C110.53 20.47 113.15 14.7 112.48 10.08C110.71 -2.07 93.24 -2.26 86.59 9.8C86.16 10.57 85.8 11.23 85.78 11.26C85.76 11.29 85.16 10.75 84.45 10.06C82.97 8.62 81.77 8.1 77.73 7.09C73.97 6.16 73.2 5.5 74.46 4.31C75.66 3.18 78.28 3.91 78.87 5.55C79.22 6.51 79.16 6.5 83.16 6.23L85.47 6.08L85.33 5.16C84.64 0.88 79.26 -1.48 73.33 -0.1L73.33 -0.1ZM1.35 10.62L1.35 21.2L8.16 21.2L8.16 12.74L8.86 12.74C9.95 12.74 10.61 13.54 12.71 17.44L14.68 21.08L18.47 21.15C20.55 21.18 22.26 21.15 22.26 21.07C22.26 19.88 18.01 13 16.83 12.29L16.19 11.89L17.49 11.21C22.32 8.68 21.41 1.42 16.11 0.28C15.45 0.14 12.06 0.03 8.15 0.03L1.35 0.03L1.35 10.62L1.35 10.62ZM104.47 1.88C115.1 4.66 114.12 19.59 102.96 25.04C91.58 30.6 81.44 21.48 86.85 10.56C90 4.18 98.07 0.21 104.46 1.88L104.47 1.88ZM12.86 4.81C15.25 6.02 13.66 8.25 10.27 8.45L8.16 8.57L8.16 4.5L10.22 4.51C11.4 4.51 12.52 4.64 12.86 4.81ZM100.71 6.68C98.84 7.17 96.93 9.07 96.93 10.43C96.93 12.66 98.71 13.47 101.51 12.5C103.23 11.91 103.66 11.91 103.98 12.5C104.52 13.51 102.75 14.54 101.73 13.81C101.21 13.45 99.31 14.59 99.29 15.28C99.26 16.3 101.86 16.69 103.45 15.9C108.5 13.38 107.06 7.97 101.83 9.78C99.73 10.5 99.28 10.53 99.28 9.95C99.28 9.04 100.71 8.38 101.33 9C101.58 9.25 103.51 7.97 103.51 7.55C103.51 6.92 101.8 6.38 100.71 6.68L100.71 6.68ZM93.13 11.75C92 12.56 91.95 12.35 94.01 15.28C95.27 17.07 95.76 17.96 95.71 18.38C95.63 19.1 94.82 19.29 94.26 18.72C93.9 18.36 93.8 18.39 92.95 19.12C90.8 20.97 94.07 22.55 96.5 20.84C99.16 18.97 99.17 17.8 96.52 13.92C94.46 10.92 94.37 10.86 93.12 11.75L93.13 11.75ZM6.92 24.74C3.08 25.34 0.83 27.59 0.8 30.86C0.77 34.19 2.93 36.09 8.27 37.43C11.55 38.25 12.63 38.88 12.63 39.96C12.63 43 7.19 42.7 6.61 39.62C6.41 38.55 6.44 38.56 2.97 38.74L-0.11 38.91L0.05 39.87C0.75 44.3 3.32 46.14 9.03 46.32C13.57 46.46 15.13 46.02 17.11 44.03L18.46 42.68L18.96 43.35C21.84 47.25 31.57 47.52 34.77 43.77C35.7 42.68 36.75 40.62 36.86 39.68C36.93 39.01 36.91 39 34.06 38.13L31.19 37.26L30.81 38.42C29.5 42.38 24.54 42.42 23.46 38.49C23.09 37.15 23.13 33.96 23.54 32.58C24.53 29.26 28.7 28.58 30.39 31.46C31.09 32.67 30.9 32.65 34.1 31.92C37.15 31.23 37.02 31.36 36.33 29.86C33.57 23.92 24.3 22.52 19.39 27.31L18.02 28.64L17.45 27.67C16.04 25.25 11.57 24 6.92 24.74L6.92 24.74ZM71.81 24.74C69.2 25.19 66.63 26.83 65.18 28.97C64.79 29.54 64.78 29.49 64.77 27.26L64.76 24.96L57.95 24.96L57.95 32.26L51.14 32.26L51.14 24.96L44.33 24.96L44.33 46.13L51.14 46.13L51.14 37.67L57.95 37.67L57.95 46.13L64.76 46.13L64.76 41.35L65.5 42.46C68.56 47.08 78.02 47.9 82.33 43.9C87.31 39.28 86.33 28.77 80.65 25.86C78.46 24.74 74.61 24.25 71.8 24.74L71.81 24.74ZM10.74 29.08C11.13 29.28 11.59 29.83 11.84 30.4L12.27 31.37L16.86 31.15L16.71 32.35C16.51 33.94 16.42 34 15.11 33.42C14.49 33.14 12.75 32.61 11.25 32.23C7.69 31.34 7.25 31.15 7.07 30.42C6.73 29.08 9.09 28.22 10.74 29.08L10.74 29.08ZM75.83 29.91C79.31 30.88 80.01 38.87 76.79 40.77C74.38 42.19 71.33 40.98 70.62 38.33C69.2 33.04 71.83 28.8 75.83 29.91ZM104.22 29.91C108.27 31.03 108.18 40.12 104.12 41.22C100.86 42.1 98.69 39.83 98.7 35.55C98.72 31.11 100.82 28.96 104.23 29.91L104.22 29.91Z" fill="#707070" fill-opacity="1.000000" fill-rule="nonzero"/>
</svg>
