<svg  fill="#aa4e41" xmlns="http://www.w3.org/2000/svg"
viewBox="0 0 100 85.97"
 xmlns:xlink="http://www.w3.org/1999/xlink"
 xmlns:xodm="http://www.corel.com/coreldraw/odm/2003">
 <g>
  <g>
   <path d="M37.96 76.72c-0.64,-6.64 -1.85,-11.56 -1.06,-18.6 4.4,0.78 8.92,1.46 13.49,2.07l13.81 1.66c9.84,0.55 20.01,1.14 29.78,0.04l-1.77 17.97c-0.71,1.24 -7.25,0.57 -8.9,0.55 -9.6,-0.11 -18.34,-0.64 -27.89,-1.52 -2.59,-0.24 -15.78,-1.68 -17.46,-2.17zm-19.2 -4.73c-1.83,-0.37 -5.13,-2.14 -6.39,-3.08 -6.68,-4.95 -7.26,-12.5 -6.76,-21.06l0.65 0.67c2.32,2.92 7.87,4.19 11.39,4.58l1.11 18.89zm18.95 -19.12c0.3,-2.19 1.42,-4.35 2.49,-5.58 1,-1.15 0.75,-1.11 2.61,-0.87 6.16,0.77 12.05,1.17 18.22,1.77 9.69,0.93 20.69,1.23 30.55,1.26 1.42,0.07 2.87,-0.16 4.3,-0.28 0.02,0.05 0.04,0.11 0.05,0.15l0.13 0.45c0.02,0.06 0.06,0.48 0.07,0.58 0.29,3.36 -0.6,4.77 -4.04,4.78l-17.73 0c-16.03,-0.17 -21.21,-0.79 -36.65,-2.26zm7.17 -8.75c2.23,-0.71 4.42,-1.46 6.87,-2.14 2.29,-0.63 4.53,-1.28 6.85,-1.93 4.61,-1.28 9.14,-2.6 13.7,-3.85l20.59 -5.75c4.17,-1.14 4.07,-2.25 4.15,-0.48l0.19 10.87c-0.05,7.46 -0.63,6.33 -11.34,6.16 -2.81,-0.04 -5.79,-0.04 -8.58,-0.21 -4.34,-0.28 -30.26,-1.51 -32.43,-2.67zm-35.44 -3.42c2.99,1.3 6.17,1.98 9.65,2.57 -0.35,1.92 -1.05,3.46 -1.2,5.73 -3.08,-0.37 -8.27,-2.15 -10.65,-3.86 -2.83,-2.04 -5.07,-6.35 -4.77,-9.58 0.69,0.85 2.17,2.24 3.12,2.95 1.18,0.88 2.32,1.53 3.85,2.19zm24.64 37.66c-2.64,-0.08 -6.68,-0.62 -9.3,-1.02 -3.49,-0.54 -3.44,-3 -3.72,-6.39 -0.27,-3.16 -0.4,-6.44 -0.55,-9.62 -0.4,-8.42 -2.28,-19.01 6.5,-22.92 2.11,-0.94 5.26,-1.81 7.57,-2.58l38.27 -12.68c5.05,-1.65 10.14,-3.4 15.36,-4.96 1.71,-0.51 6.36,-2.37 7.86,-1.64 2.6,1.25 0.82,3.74 1.4,8.11 -0.97,0.52 -4.52,1.37 -5.87,1.75l-17.27 4.93c-7.69,2.2 -15.35,4.35 -23.04,6.56 -9.21,2.64 -15.47,2.59 -16.96,12.83 -1,6.92 -1.41,13.87 -0.89,20.9 0.16,2.22 0.55,4.6 0.64,6.73zm-13.94 -37.36c-6.29,-0.55 -14.05,-3.21 -16.62,-8.33 -5.26,-10.5 8.23,-14.68 16.25,-16.48 5.92,-1.33 12.1,-1.38 18.26,-0.62 2.3,0.28 1.98,-0.39 2.26,-2.43 0.2,-1.43 0.77,-2.62 1.37,-3.62 5.57,-9.28 29.87,-8.07 39.8,-4.01 3.78,1.54 9.71,5.26 11.16,8.9 -2.96,0.76 -6.35,1.96 -9.35,2.97 -3.13,1.05 -6.25,1.96 -9.39,3.01 -15.73,5.26 -30.83,9.98 -46.52,15.45 -2.29,0.8 -4.22,1.77 -5.76,3.54l-1.46 1.62zm-20.14 -13.63l0 4.99c0.44,1.01 0.45,3.13 0.67,4.36 0.64,3.54 1.49,4.63 2.51,7.49 0.71,2 -1.67,12.24 2.68,21.58 1.17,2.5 3.51,5.63 5.45,7.11 0.53,0.41 0.77,0.74 1.28,1.13 6.05,4.7 8.79,6.32 17.68,7.01 2.73,0.21 5.83,0.9 8.58,1.36 13.86,2.34 31.77,4.14 45.67,3.4 2.7,-0.14 6.61,-0.02 8.28,-1.57 2.24,-2.06 2.03,-4.88 2.12,-7.76 0.2,-6.06 1.55,-11.89 1.59,-18.07 0.01,-3.36 0.19,-1.53 1.33,-3.72 0.67,-1.3 0.77,-2.77 0.66,-4.38 -0.04,-0.58 -0.28,-1.94 -0.23,-2.4 0.15,-1.49 1.18,-0.08 1.29,-6.03 0.06,-3.33 0.02,-6.66 -0.1,-9.98 -0.04,-0.89 -0.31,-4.22 -0.19,-4.81 0.15,-0.68 0.65,-0.88 0.7,-1.75 0.03,-0.63 -0.25,-1.42 -0.32,-2.05 -0.21,-1.62 0.44,-3.01 0.34,-4.64 -0.13,-2.01 -1.54,-3.63 -3.21,-4.35 -1.95,-0.83 -0.93,0.49 -2.67,-2.15 -1.44,-2.17 -4.18,-4.57 -6.39,-6.01 -1.95,-1.27 -4.15,-2.33 -6.58,-3.23 -12.27,-4.55 -41.12,-5.46 -43.28,10.25 -4.52,-0.2 -8.05,-0.69 -12.72,-0.19 -6.13,0.65 -15.37,2.85 -20.09,6.43 -4.93,3.73 -4.17,5.8 -5.05,7.98z"/>
   <path fill="#ffffff" d="M20.14 41l1.46 -1.62c1.54,-1.77 3.47,-2.74 5.76,-3.54 15.69,-5.47 30.79,-10.19 46.52,-15.45 3.14,-1.05 6.26,-1.96 9.39,-3.01 3,-1.01 6.39,-2.21 9.35,-2.97 -1.45,-3.64 -7.38,-7.36 -11.16,-8.9 -9.93,-4.06 -34.23,-5.27 -39.8,4.01 -0.6,1 -1.17,2.19 -1.37,3.62 -0.28,2.04 0.04,2.71 -2.26,2.43 -6.16,-0.76 -12.34,-0.71 -18.26,0.62 -8.02,1.8 -21.51,5.98 -16.25,16.48 2.57,5.12 10.33,7.78 16.62,8.33z"/>
   <path fill="#ffffff" d="M34.08 78.36c-0.09,-2.13 -0.48,-4.51 -0.64,-6.73 -0.52,-7.03 -0.11,-13.98 0.89,-20.9 1.49,-10.24 7.75,-10.19 16.96,-12.83 7.69,-2.21 15.35,-4.36 23.04,-6.56l17.27 -4.93c1.35,-0.38 4.9,-1.23 5.87,-1.75 -0.58,-4.37 1.2,-6.86 -1.4,-8.11 -1.5,-0.73 -6.15,1.13 -7.86,1.64 -5.22,1.56 -10.31,3.31 -15.36,4.96l-38.27 12.68c-2.31,0.77 -5.46,1.64 -7.57,2.58 -8.78,3.91 -6.9,14.5 -6.5,22.92 0.15,3.18 0.28,6.46 0.55,9.62 0.28,3.39 0.23,5.85 3.72,6.39 2.62,0.4 6.66,0.94 9.3,1.02z"/>
   <path fill="#ffffff" d="M37.96 76.72c1.68,0.49 14.87,1.93 17.46,2.17 9.55,0.88 18.29,1.41 27.89,1.52 1.65,0.02 8.19,0.69 8.9,-0.55l1.77 -17.97c-9.77,1.1 -19.94,0.51 -29.78,-0.04l-13.81 -1.66c-4.57,-0.61 -9.09,-1.29 -13.49,-2.07 -0.79,7.04 0.42,11.96 1.06,18.6z"/>
   <path fill="#ffffff" d="M44.88 44.12c2.17,1.16 28.09,2.39 32.43,2.67 2.79,0.17 5.77,0.17 8.58,0.21 10.71,0.17 11.29,1.3 11.34,-6.16l-0.19 -10.87c-0.08,-1.77 0.02,-0.66 -4.15,0.48l-20.59 5.75c-4.56,1.25 -9.09,2.57 -13.7,3.85 -2.32,0.65 -4.56,1.3 -6.85,1.93 -2.45,0.68 -4.64,1.43 -6.87,2.14z"/>
   <path fill="#ffffff" d="M37.71 52.87c15.44,1.47 20.62,2.09 36.65,2.26l17.73 0c3.44,-0.01 4.33,-1.42 4.04,-4.78 -0.01,-0.1 -0.05,-0.52 -0.07,-0.58l-0.13 -0.45c-0.01,-0.04 -0.03,-0.1 -0.05,-0.15 -1.43,0.12 -2.88,0.35 -4.3,0.28 -9.86,-0.03 -20.86,-0.33 -30.55,-1.26 -6.17,-0.6 -12.06,-1 -18.22,-1.77 -1.86,-0.24 -1.61,-0.28 -2.61,0.87 -1.07,1.23 -2.19,3.39 -2.49,5.58z"/>
   <path fill="#ffffff" d="M18.76 71.99l-1.11 -18.89c-3.52,-0.39 -9.07,-1.66 -11.39,-4.58l-0.65 -0.67c-0.5,8.56 0.08,16.11 6.76,21.06 1.26,0.94 4.56,2.71 6.39,3.08z"/>
   <path fill="#ffffff" d="M17.89 49c0.15,-2.27 0.85,-3.81 1.2,-5.73 -3.48,-0.59 -6.66,-1.27 -9.65,-2.57 -1.53,-0.66 -2.67,-1.31 -3.85,-2.19 -0.95,-0.71 -2.43,-2.1 -3.12,-2.95 -0.3,3.23 1.94,7.54 4.77,9.58 2.38,1.71 7.57,3.49 10.65,3.86z"/>
  </g>
 </g>
</svg>
