
<svg id='svgElem' viewBox="0 0 48 48" xmlns="http://www.w3.org/2000/svg"  stroke="#aa4e41">
<g id="SVGRepo_iconCarrier"> <title>user-single-solid</title> <g id="Layer_2" data-name="Layer 2">  <g id="icons_Q2" data-name="icons Q2"> <g> <path  d="M24,3A11,11,0,1,0,35,14,11,11,0,0,0,24,3Z" stroke-width="3" /> <path  d="M40,45H8a2,2,0,0,1-2-2V34.5l.9-.6A32.1,32.1,0,0,1,24,29a31.3,31.3,0,0,1,17.1,5l.9.5V43A2,2,0,0,1,40,45ZM10,41H38V36.8A27.5,27.5,0,0,0,24,33a28.4,28.4,0,0,0-14,3.7Z" stroke-width="3" /> <path d="M40,45H8a2,2,0,0,1-2-2V34.5l.9-.6A32.1,32.1,0,0,1,24,29a31.3,31.3,0,0,1,17.1,5l.9.5V43A2,2,0,0,1,40,45Z" stroke-width="3" /> </g> </g> </g> </g>
</svg>
