<svg id='svgElem'  viewBox="0 0 121 93.0919" xmlns="http://www.w3.org/2000/svg" xmlns:xlink="http://www.w3.org/1999/xlink">
	<path id="Контур 560" d="M120.99 16.39C120.99 11.8 121 7.2 120.99 2.61C121 2.26 120.93 1.92 120.8 1.6C120.67 1.28 120.48 0.99 120.23 0.75C119.99 0.51 119.7 0.31 119.38 0.18C119.06 0.06 118.72 -0.01 118.37 0C112.86 -0.01 107.35 0 101.83 0C98.79 -0.03 95.75 0.26 92.77 0.87C88.68 1.71 84.72 3.14 81.03 5.11C77.6 6.97 74.45 9.3 71.68 12.04C71.15 12.6 70.49 13.01 69.93 13.55C64.31 19.22 60.45 26.39 58.82 34.21C58.23 37.08 57.9 40 57.84 42.94C57.84 48.46 57.84 53.97 57.84 59.49C57.89 60.18 57.34 60.69 57.01 61.24C56.18 62.39 55.62 63.71 54.75 64.84C54.85 62.64 54.96 60.43 55.11 58.23C55.32 53.75 55.76 49.21 54.98 44.76C53.62 37.53 50.19 30.85 45.12 25.52C41.41 21.77 36.97 18.82 32.07 16.85C27.18 14.88 21.94 13.92 16.66 14.04C11.98 14.04 7.31 14.04 2.63 14.04C2.29 14.04 1.94 14.1 1.62 14.22C1.3 14.35 1.01 14.54 0.77 14.79C0.52 15.03 0.33 15.32 0.2 15.64C0.07 15.95 0.01 16.3 0.01 16.64C0 21.23 0.01 25.83 0.01 30.42C-0.2 37.66 1.64 44.81 5.32 51.04C9.19 57.3 14.73 62.34 21.33 65.59C24.15 66.91 27.11 67.9 30.16 68.52C34.68 69.67 39.38 69.09 43.99 68.94C46.38 68.78 49.81 68.77 52.29 68.67L52.65 68.66C52.73 68.66 52.79 68.65 52.85 68.65C52.28 69.96 51.63 71.23 51.01 72.52C49.89 75.13 48.96 77.82 48.23 80.56C47.1 84.64 46.53 88.85 46.53 93.09C49.64 82.4 54.62 72.35 61.25 63.41C66.34 63.4 71.44 63.41 76.53 63.41C79.06 63.46 81.6 63.28 84.1 62.89C89.4 62.07 94.5 60.25 99.12 57.53C102.02 55.85 104.69 53.81 107.07 51.45C107.68 50.8 108.45 50.34 109.07 49.69C112.36 46.32 115.07 42.41 117.06 38.13C119.14 33.57 120.42 28.69 120.83 23.69C121.06 21.25 120.98 18.82 120.99 16.39ZM52.66 68.46C52.54 68.48 52.42 68.5 52.3 68.54C51.33 68.35 50.34 68.22 49.36 68.15C45.13 67.75 40.88 67.7 36.65 67.38C31.54 66.91 26.61 65.31 22.19 62.71C16.41 59.24 11.7 54.25 8.56 48.29C7.5 46.03 6.67 43.67 6.06 41.25C5.18 38.21 4.69 35.08 4.6 31.91C4.61 27.49 4.58 23.06 4.62 18.64C9.97 18.62 15.32 18.64 20.67 18.63C25.04 18.68 29.34 19.68 33.27 21.58C34.28 22.12 35.24 22.76 36.12 23.49C38.36 25.05 40.48 26.78 42.46 28.66C46.79 32.8 49.99 37.98 51.75 43.7C53.01 48.27 53.6 53 53.5 57.73C53.68 60.23 53.74 62.74 53.92 65.24C54.11 66.47 53.12 67.41 52.66 68.46ZM115.92 25.16C115.41 28.7 114.49 32.17 113.16 35.5C111.16 39.91 108.46 43.98 105.16 47.53C102.42 50.24 99.27 52.5 95.82 54.21C92.9 55.77 89.77 56.86 86.52 57.46C84.47 57.92 82.4 58.25 80.31 58.45C78.3 58.64 76.29 58.53 74.28 58.56C71.25 58.54 68.23 58.6 65.2 58.52C73.78 47.86 83.71 38.39 93.03 28.39C93.71 27.64 94.42 26.93 95.05 26.14C83.29 33.31 72.71 42.23 63.66 52.61C63.45 52.85 63.2 53.08 62.97 53.31C62.86 50.52 62.95 47.73 62.92 44.95C62.85 42.59 63.01 40.23 63.42 37.91C63.96 33.68 65.21 29.57 67.1 25.74C68.94 22.08 71.3 18.7 74.1 15.71C76.75 13.28 79.67 11.16 82.79 9.38C85.47 7.8 88.38 6.66 91.42 6C94.58 5.2 97.82 4.74 101.08 4.61C106.18 4.62 111.28 4.6 116.39 4.62C116.42 7.88 116.39 11.14 116.4 14.39C116.55 17.99 116.39 21.59 115.92 25.16Z" fill="#AA4E41" fill-opacity="1.000000" fill-rule="nonzero"/>
	<path id="Контур 561" d="M115.92 25.16C115.41 28.7 114.48 32.17 113.16 35.49C111.16 39.91 108.46 43.97 105.16 47.52C102.42 50.23 99.27 52.49 95.82 54.21C92.9 55.76 89.77 56.86 86.52 57.45C84.47 57.92 82.4 58.25 80.31 58.44C78.3 58.63 76.29 58.53 74.28 58.55C71.25 58.53 68.23 58.6 65.2 58.52C73.78 47.85 83.71 38.38 93.03 28.38C93.71 27.64 94.42 26.93 95.04 26.14C83.29 33.3 72.71 42.23 63.66 52.6C63.44 52.85 63.2 53.08 62.97 53.3C62.86 50.52 62.95 47.73 62.92 44.94C62.85 42.59 63.01 40.23 63.41 37.9C63.96 33.67 65.21 29.56 67.1 25.74C68.94 22.08 71.3 18.7 74.1 15.71C76.75 13.28 79.67 11.16 82.79 9.37C85.47 7.79 88.38 6.65 91.42 6C94.58 5.2 97.82 4.73 101.08 4.61C106.18 4.62 111.28 4.59 116.38 4.62C116.42 7.87 116.38 11.13 116.4 14.39C116.55 17.98 116.39 21.59 115.92 25.16Z" fill="#FFFFFF" fill-opacity="1.000000" fill-rule="nonzero"/>
	<path id="Контур 562" d="M53.92 65.23C53.74 62.73 53.68 60.22 53.5 57.72C53.6 52.99 53.01 48.27 51.75 43.7C49.99 37.98 46.8 32.8 42.47 28.66C40.49 26.78 38.37 25.05 36.13 23.49C35.24 22.76 34.29 22.12 33.28 21.58C29.34 19.68 25.04 18.68 20.68 18.63C15.33 18.64 9.97 18.62 4.62 18.64C4.59 23.06 4.62 27.49 4.6 31.91C4.69 35.08 5.18 38.21 6.07 41.25C6.67 43.67 7.51 46.03 8.57 48.29C11.7 54.25 16.42 59.24 22.19 62.71C26.61 65.31 31.55 66.91 36.65 67.38C40.88 67.7 45.13 67.75 49.36 68.15C50.35 68.22 51.33 68.35 52.3 68.54C52.42 68.5 52.54 68.48 52.66 68.46C53.12 67.41 54.11 66.47 53.92 65.23ZM50.75 64.45C44.72 59.41 38.93 54.08 33.3 48.59C29.92 45.09 26.27 41.76 23.64 37.63C24.77 38.06 25.87 38.59 26.92 39.21C34.83 43.57 41.81 49.43 47.47 56.47C49.94 59.41 51.91 62.74 53.31 66.32C52.4 65.78 51.54 65.15 50.75 64.45Z" fill="#FFFFFF" fill-opacity="1.000000" fill-rule="nonzero"/>
	<path id="Контур 563" d="M53.31 66.32C52.4 65.78 51.54 65.15 50.75 64.45C44.72 59.41 38.93 54.08 33.3 48.59C29.92 45.09 26.27 41.76 23.63 37.63C24.77 38.06 25.87 38.59 26.92 39.21C34.83 43.57 41.81 49.43 47.47 56.47C49.94 59.41 51.91 62.74 53.31 66.32Z" fill="#AA4E41" fill-opacity="1.000000" fill-rule="nonzero"/>
</svg>

